<svg width="147" height="50" viewBox="0 0 147 50" fill="none" xmlns="http://www.w3.org/2000/svg">
<g clip-path="url(#clip0_349_2371)">
<path d="M143 0H4C1.79086 0 0 1.79086 0 4V46C0 48.2091 1.79086 50 4 50H143C145.209 50 147 48.2091 147 46V4C147 1.79086 145.209 0 143 0Z" fill="#EEEAFF"/>
<path d="M36.7559 24.1994C36.7559 21.0994 39.3559 19.5994 39.4559 19.4994C37.9559 17.3994 35.7559 17.0994 34.9559 16.9994C33.0559 16.7994 31.1559 18.0994 30.2559 18.0994C29.2559 18.0994 27.7559 16.9994 26.1559 16.9994C24.0559 16.9994 22.1559 18.1994 21.0559 20.0994C18.8559 23.8994 20.4559 29.4994 22.5559 32.5994C23.6559 34.0994 24.8559 35.7994 26.4559 35.6994C28.0559 35.5994 28.6559 34.6994 30.5559 34.6994C32.4559 34.6994 32.9559 35.6994 34.6559 35.6994C36.3559 35.6994 37.4559 34.1994 38.4559 32.6994C39.6559 30.9994 40.1559 29.2994 40.1559 29.1994C40.0559 29.0994 36.7559 27.8994 36.7559 24.1994Z" fill="#582EFF"/>
<path d="M33.656 15C34.456 13.9 35.056 12.5 34.956 11C33.756 11.1 32.156 11.8 31.356 12.9C30.556 13.8 29.856 15.3 30.056 16.7C31.356 16.8 32.756 16 33.656 15Z" fill="#582EFF"/>
<path d="M59.5562 35.4996H57.3563L56.1562 31.6996H51.9562L50.7562 35.4996H48.6562L52.7562 22.5996H55.3563L59.5562 35.4996ZM55.7562 30.0996L54.6562 26.6996C54.5563 26.3996 54.3562 25.4996 53.9562 24.2996C53.8562 24.7996 53.6563 25.6996 53.3563 26.6996L52.2562 30.0996H55.7562Z" fill="#582EFF"/>
<path d="M70.2559 30.7996C70.2559 32.3996 69.8559 33.5996 68.9559 34.5996C68.1559 35.3996 67.2559 35.7996 66.0559 35.7996C64.8559 35.7996 63.9559 35.3996 63.4559 34.4996V39.3996H61.3559V29.3996C61.3559 28.3996 61.3559 27.3996 61.2559 26.2996H63.0559L63.1559 27.7996C63.8559 26.6996 64.8559 26.0996 66.2559 26.0996C67.3559 26.0996 68.2559 26.4996 68.9559 27.3996C69.8559 28.1996 70.2559 29.2996 70.2559 30.7996ZM68.1559 30.7996C68.1559 29.8996 67.9559 29.0996 67.5559 28.5996C67.1559 27.9996 66.5559 27.6996 65.7559 27.6996C65.2559 27.6996 64.7559 27.8996 64.3559 28.1996C63.9559 28.4996 63.6559 28.9996 63.5559 29.4996C63.4559 29.7996 63.4559 29.9996 63.4559 30.0996V31.6996C63.4559 32.3996 63.6559 32.8996 64.0559 33.3996C64.4559 33.8996 65.0559 34.0996 65.6559 34.0996C66.4559 34.0996 67.0559 33.7996 67.4559 33.1996C67.8559 32.5996 68.1559 31.7996 68.1559 30.7996Z" fill="#582EFF"/>
<path d="M80.9551 30.7996C80.9551 32.3996 80.5551 33.5996 79.6551 34.5996C78.8551 35.3996 77.9551 35.7996 76.7551 35.7996C75.5551 35.7996 74.6551 35.3996 74.1551 34.4996V39.3996H72.0551V29.3996C72.0551 28.3996 72.0551 27.3996 71.9551 26.2996H73.7551L73.8551 27.7996C74.5551 26.6996 75.5551 26.0996 76.9551 26.0996C78.0551 26.0996 78.9551 26.4996 79.6551 27.3996C80.5551 28.1996 80.9551 29.2996 80.9551 30.7996ZM78.8551 30.7996C78.8551 29.8996 78.6551 29.0996 78.2551 28.5996C77.8551 27.9996 77.2551 27.6996 76.4551 27.6996C75.9551 27.6996 75.4551 27.8996 75.0551 28.1996C74.6551 28.4996 74.3551 28.9996 74.2551 29.4996C74.1551 29.7996 74.1551 29.9996 74.1551 30.0996V31.6996C74.1551 32.3996 74.3551 32.8996 74.7551 33.3996C75.1551 33.8996 75.7551 34.0996 76.3551 34.0996C77.1551 34.0996 77.7551 33.7996 78.1551 33.1996C78.5551 32.5996 78.8551 31.7996 78.8551 30.7996Z" fill="#582EFF"/>
<path d="M92.8551 31.9C92.8551 33 92.4551 33.9 91.7551 34.6C90.9551 35.4 89.7551 35.7 88.2551 35.7C86.8551 35.7 85.7551 35.4 84.9551 34.9L85.4551 33.2C86.3551 33.7 87.3551 34 88.4551 34C89.2551 34 89.8551 33.8 90.2551 33.5C90.6551 33.1 90.8551 32.7 90.8551 32.1C90.8551 31.6 90.6551 31.1 90.3551 30.8C89.9551 30.4 89.3551 30.1 88.5551 29.8C86.2551 29 85.1551 27.7 85.1551 26.1C85.1551 25 85.5551 24.2 86.3551 23.5C87.1551 22.8 88.1551 22.5 89.5551 22.5C90.7551 22.5 91.6551 22.7 92.4551 23.1L91.9551 24.8C91.2551 24.4 90.4551 24.2 89.4551 24.2C88.7551 24.2 88.1551 24.4 87.7551 24.7C87.4551 25 87.2551 25.4 87.2551 25.9C87.2551 26.4 87.4551 26.8 87.8551 27.2C88.1551 27.5 88.8551 27.8 89.7551 28.2C90.8551 28.6 91.6551 29.2 92.2551 29.8C92.6551 30.3 92.8551 31 92.8551 31.9Z" fill="#582EFF"/>
<path d="M99.7566 27.8004H97.4566V32.3004C97.4566 33.4004 97.8566 34.0004 98.6566 34.0004C99.0566 34.0004 99.3566 34.0004 99.5566 33.9004L99.6566 35.5004C99.2566 35.7004 98.7566 35.7004 98.0566 35.7004C97.2566 35.7004 96.5566 35.5004 96.1566 35.0004C95.6566 34.5004 95.4566 33.7004 95.4566 32.5004V27.8004H94.0566V26.2004H95.4566V24.5004L97.4566 23.9004V26.2004H99.7566V27.8004Z" fill="#582EFF"/>
<path d="M110.055 30.8C110.055 32.2 109.655 33.4 108.855 34.3C107.955 35.2 106.855 35.7 105.455 35.7C104.055 35.7 102.955 35.2 102.155 34.3C101.355 33.4 100.955 32.3 100.955 30.9C100.955 29.5 101.355 28.3 102.255 27.4C103.055 26.5 104.255 26 105.655 26C107.055 26 108.155 26.5 108.955 27.4C109.655 28.3 110.055 29.4 110.055 30.8ZM107.855 30.9C107.855 30 107.655 29.3 107.255 28.7C106.855 28 106.155 27.6 105.355 27.6C104.555 27.6 103.855 28 103.455 28.7C103.055 29.3 102.855 30.1 102.855 30.9C102.855 31.8 103.055 32.5 103.455 33.1C103.855 33.8 104.555 34.2 105.355 34.2C106.155 34.2 106.755 33.8 107.255 33.1C107.655 32.5 107.855 31.7 107.855 30.9Z" fill="#582EFF"/>
<path d="M116.756 28.0004C116.556 28.0004 116.356 27.9004 116.056 27.9004C115.356 27.9004 114.756 28.2004 114.356 28.7004C114.056 29.2004 113.856 29.8004 113.856 30.5004V35.4004H111.756V29.0004C111.756 27.9004 111.756 27.0004 111.656 26.1004H113.456L113.556 27.9004H113.656C113.856 27.3004 114.256 26.8004 114.656 26.4004C115.156 26.1004 115.656 25.9004 116.156 25.9004C116.356 25.9004 116.556 25.9004 116.656 25.9004V28.0004H116.756Z" fill="#582EFF"/>
<path d="M125.956 30.4C125.956 30.8 125.956 31.1 125.856 31.3H119.656C119.656 32.2 119.956 32.9 120.556 33.4C121.056 33.8 121.756 34.1 122.556 34.1C123.456 34.1 124.356 34 125.056 33.7L125.356 35.1C124.456 35.5 123.456 35.7 122.256 35.7C120.856 35.7 119.656 35.3 118.856 34.4C118.056 33.6 117.656 32.4 117.656 31C117.656 29.6 118.056 28.4 118.756 27.5C119.556 26.5 120.656 26 122.056 26C123.356 26 124.456 26.5 125.056 27.5C125.656 28.3 125.956 29.3 125.956 30.4ZM123.956 29.9C123.956 29.3 123.856 28.8 123.556 28.3C123.156 27.7 122.656 27.4 121.956 27.4C121.256 27.4 120.756 27.7 120.356 28.2C120.056 28.6 119.856 29.2 119.756 29.8H123.956V29.9Z" fill="#582EFF"/>
<path d="M55.0555 14.6996C55.0555 15.7996 54.7555 16.6996 54.0555 17.2996C53.4555 17.7996 52.5555 18.0996 51.3555 18.0996C50.7555 18.0996 50.2555 18.0996 49.8555 17.9996V11.6996C50.3555 11.5996 50.9555 11.5996 51.6555 11.5996C52.7555 11.5996 53.5555 11.7996 54.1555 12.2996C54.7555 12.8996 55.0555 13.6996 55.0555 14.6996ZM54.0555 14.6996C54.0555 13.9996 53.8555 13.3996 53.4555 12.9996C53.0555 12.5996 52.4555 12.3996 51.7555 12.3996C51.4555 12.3996 51.1555 12.3996 50.9555 12.4996V17.1996C51.0555 17.1996 51.3555 17.1996 51.6555 17.1996C52.4555 17.1996 53.0555 16.9996 53.4555 16.5996C53.7555 16.1996 54.0555 15.4996 54.0555 14.6996Z" fill="#545659"/>
<path d="M60.7559 15.6988C60.7559 16.3988 60.5559 16.9988 60.1559 17.3988C59.7559 17.8988 59.1559 18.0988 58.4559 18.0988C57.7559 18.0988 57.2559 17.8988 56.8559 17.3988C56.4559 16.9988 56.2559 16.3988 56.2559 15.6988C56.2559 14.9988 56.4559 14.3988 56.8559 13.9988C57.2559 13.4988 57.8559 13.2988 58.5559 13.2988C59.2559 13.2988 59.7559 13.4988 60.1559 13.9988C60.5559 14.3988 60.7559 14.9988 60.7559 15.6988ZM59.7559 15.6988C59.7559 15.2988 59.6559 14.8988 59.4559 14.5988C59.2559 14.1988 58.9559 14.0988 58.5559 14.0988C58.1559 14.0988 57.8559 14.2988 57.6559 14.5988C57.4559 14.8988 57.3559 15.2988 57.3559 15.6988C57.3559 16.0988 57.4559 16.4988 57.6559 16.7988C57.8559 17.1988 58.1559 17.2988 58.5559 17.2988C58.9559 17.2988 59.2559 17.0988 59.4559 16.6988C59.6559 16.4988 59.7559 16.0988 59.7559 15.6988Z" fill="#545659"/>
<path d="M68.3559 13.4004L66.9559 18.0004H66.0559L65.4559 16.0004C65.2559 15.5004 65.1559 15.0004 65.0559 14.5004C64.9559 15.0004 64.8559 15.5004 64.6559 16.0004L64.0559 18.0004H63.1559L61.7559 13.4004H62.7559L63.2559 15.6004C63.3559 16.1004 63.4559 16.6004 63.5559 17.1004C63.6559 16.7004 63.7559 16.2004 63.9559 15.6004L64.6559 13.4004H65.4559L66.0559 15.5004C66.2559 16.0004 66.3559 16.5004 66.4559 17.0004C66.5559 16.5004 66.6559 16.0004 66.7559 15.5004L67.3559 13.4004H68.3559Z" fill="#545659"/>
<path d="M73.6559 17.9988H72.6559V15.3988C72.6559 14.5988 72.3559 14.1988 71.7559 14.1988C71.4559 14.1988 71.2559 14.2988 71.0559 14.4988C70.8559 14.6988 70.7559 14.9988 70.7559 15.2988V17.9988H69.7559V14.6988C69.7559 14.2988 69.7559 13.8988 69.7559 13.3988H70.6559V14.0988C70.7559 13.8988 70.9559 13.6988 71.1559 13.4988C71.4559 13.3988 71.7559 13.2988 72.0559 13.2988C72.4559 13.2988 72.8559 13.3988 73.1559 13.6988C73.5559 13.9988 73.6559 14.4988 73.6559 15.1988V17.9988Z" fill="#545659"/>
<path d="M76.4551 17.9988H75.4551V11.2988H76.4551V17.9988Z" fill="#545659"/>
<path d="M82.4551 15.6988C82.4551 16.3988 82.2551 16.9988 81.8551 17.3988C81.4551 17.8988 80.8551 18.0988 80.1551 18.0988C79.4551 18.0988 78.9551 17.8988 78.5551 17.3988C78.1551 16.9988 77.9551 16.3988 77.9551 15.6988C77.9551 14.9988 78.1551 14.3988 78.5551 13.9988C78.9551 13.4988 79.5551 13.2988 80.2551 13.2988C80.9551 13.2988 81.4551 13.4988 81.8551 13.9988C82.2551 14.3988 82.4551 14.9988 82.4551 15.6988ZM81.3551 15.6988C81.3551 15.2988 81.2551 14.8988 81.0551 14.5988C80.8551 14.1988 80.5551 14.0988 80.1551 14.0988C79.7551 14.0988 79.4551 14.2988 79.2551 14.5988C79.0551 14.8988 78.9551 15.2988 78.9551 15.6988C78.9551 16.0988 79.0551 16.4988 79.2551 16.7988C79.4551 17.1988 79.7551 17.2988 80.1551 17.2988C80.5551 17.2988 80.8551 17.0988 81.0551 16.6988C81.2551 16.4988 81.3551 16.0988 81.3551 15.6988Z" fill="#545659"/>
<path d="M87.3563 17.9988H86.4563L86.3563 17.4988C86.0563 17.8988 85.5564 18.0988 85.0564 18.0988C84.6564 18.0988 84.2564 17.9988 84.0564 17.6988C83.8564 17.3988 83.6562 17.0988 83.6562 16.7988C83.6562 16.1988 83.8563 15.7988 84.3563 15.4988C84.8563 15.1988 85.4563 15.0988 86.3563 15.0988V14.9988C86.3563 14.3988 86.0563 14.0988 85.4563 14.0988C84.9563 14.0988 84.6563 14.1988 84.2563 14.3988L84.0564 13.6988C84.4564 13.3988 84.9562 13.2988 85.6562 13.2988C86.8563 13.2988 87.4563 13.8988 87.4563 15.1988V16.8988C87.2563 17.3988 87.3563 17.6988 87.3563 17.9988ZM86.2563 16.3988V15.6988C85.1563 15.6988 84.5564 15.9988 84.5564 16.5988C84.5564 16.7988 84.6563 16.9988 84.7563 17.0988C84.8563 17.1988 85.0563 17.2988 85.2563 17.2988C85.4563 17.2988 85.6563 17.1988 85.8563 17.0988C86.0563 16.9988 86.1563 16.7988 86.2563 16.5988C86.2563 16.5988 86.2563 16.4988 86.2563 16.3988Z" fill="#545659"/>
<path d="M93.1555 17.9988H92.2555V17.2988C91.9555 17.8988 91.4555 18.0988 90.7555 18.0988C90.1555 18.0988 89.7555 17.8988 89.3555 17.4988C88.9555 17.0988 88.8555 16.4988 88.8555 15.7988C88.8555 15.0988 89.0555 14.4988 89.4555 13.9988C89.7555 13.4988 90.2555 13.2988 90.7555 13.2988C91.3555 13.2988 91.7555 13.4988 92.0555 13.8988V11.2988H93.0555V16.6988C93.0555 17.1988 93.1555 17.5988 93.1555 17.9988ZM92.0555 16.0988V15.2988C92.0555 15.1988 92.0555 15.0988 92.0555 14.9988C91.9555 14.7988 91.8555 14.5988 91.6555 14.3988C91.4555 14.1988 91.2555 14.1988 90.9555 14.1988C90.5555 14.1988 90.2555 14.3988 90.0555 14.6988C89.8555 14.9988 89.7555 15.3988 89.7555 15.8988C89.7555 16.3988 89.8555 16.6988 90.0555 16.9988C90.2555 17.2988 90.5555 17.4988 90.9555 17.4988C91.2555 17.4988 91.5555 17.3988 91.7555 17.0988C91.9555 16.6988 92.0555 16.3988 92.0555 16.0988Z" fill="#545659"/>
<path d="M101.855 15.6988C101.855 16.3988 101.655 16.9988 101.255 17.3988C100.855 17.8988 100.255 18.0988 99.5555 18.0988C98.8555 18.0988 98.3555 17.8988 97.9555 17.3988C97.5555 16.9988 97.3555 16.3988 97.3555 15.6988C97.3555 14.9988 97.5555 14.3988 97.9555 13.9988C98.3555 13.4988 98.9555 13.2988 99.6555 13.2988C100.355 13.2988 100.855 13.4988 101.255 13.9988C101.655 14.3988 101.855 14.9988 101.855 15.6988ZM100.755 15.6988C100.755 15.2988 100.655 14.8988 100.455 14.5988C100.255 14.1988 99.9555 14.0988 99.5555 14.0988C99.1555 14.0988 98.8555 14.2988 98.6555 14.5988C98.4555 14.8988 98.3555 15.2988 98.3555 15.6988C98.3555 16.0988 98.4555 16.4988 98.6555 16.7988C98.8555 17.1988 99.1555 17.2988 99.5555 17.2988C99.9555 17.2988 100.255 17.0988 100.455 16.6988C100.655 16.4988 100.755 16.0988 100.755 15.6988Z" fill="#545659"/>
<path d="M107.255 17.9992H106.255V15.3992C106.255 14.5992 105.955 14.1992 105.355 14.1992C105.055 14.1992 104.855 14.2992 104.655 14.4992C104.455 14.6992 104.355 14.9992 104.355 15.2992V17.9992H103.355V14.6992C103.355 14.2992 103.355 13.8992 103.355 13.3992H104.255V14.0992C104.355 13.8992 104.555 13.6992 104.755 13.4992C105.055 13.2992 105.355 13.1992 105.655 13.1992C106.055 13.1992 106.455 13.2992 106.755 13.5992C107.155 13.8992 107.255 14.3992 107.255 15.0992V17.9992Z" fill="#545659"/>
<path d="M114.155 14.1988H113.055V16.3988C113.055 16.9988 113.255 17.1988 113.655 17.1988C113.855 17.1988 113.955 17.1988 114.155 17.1988V17.9988C113.955 18.0988 113.655 18.0988 113.355 18.0988C112.955 18.0988 112.655 17.9988 112.455 17.6988C112.255 17.4988 112.155 16.9988 112.155 16.4988V14.1988H111.455V13.3988H112.155V12.5988L113.155 12.2988V13.3988H114.255V14.1988H114.155Z" fill="#545659"/>
<path d="M119.556 17.9988H118.556V15.3988C118.556 14.5988 118.256 14.1988 117.656 14.1988C117.156 14.1988 116.856 14.3988 116.656 14.8988C116.656 14.9988 116.656 15.0988 116.656 15.2988V17.9988H115.656V11.2988H116.656V14.0988C116.956 13.5988 117.456 13.2988 118.056 13.2988C118.456 13.2988 118.856 13.3988 119.056 13.6988C119.356 13.9988 119.556 14.5988 119.556 15.1988V17.9988Z" fill="#545659"/>
<path d="M125.057 15.5004C125.057 15.7004 125.057 15.8004 125.057 16.0004H122.057C122.057 16.5004 122.257 16.8004 122.457 17.0004C122.757 17.2004 123.057 17.3004 123.457 17.3004C123.957 17.3004 124.357 17.2004 124.657 17.1004L124.857 17.8004C124.457 18.0004 123.957 18.1004 123.357 18.1004C122.657 18.1004 122.057 17.9004 121.657 17.5004C121.257 17.1004 121.057 16.5004 121.057 15.8004C121.057 15.1004 121.257 14.5004 121.657 14.1004C122.057 13.6004 122.557 13.4004 123.257 13.4004C123.957 13.4004 124.457 13.6004 124.757 14.1004C124.957 14.4004 125.057 14.9004 125.057 15.5004ZM124.057 15.2004C124.057 14.9004 123.957 14.6004 123.857 14.4004C123.657 14.1004 123.457 14.0004 123.057 14.0004C122.757 14.0004 122.457 14.1004 122.257 14.4004C122.057 14.6004 121.957 14.9004 121.957 15.2004H124.057Z" fill="#545659"/>
</g>
<defs>
<clipPath id="clip0_349_2371">
<rect width="147" height="50" fill="white"/>
</clipPath>
</defs>
</svg>
