<svg width="147" height="50" viewBox="0 0 147 50" fill="none" xmlns="http://www.w3.org/2000/svg">
<g clip-path="url(#clip0_349_2357)">
<path d="M143 0H4C1.79086 0 0 1.79086 0 4V46C0 48.2091 1.79086 50 4 50H143C145.209 50 147 48.2091 147 46V4C147 1.79086 145.209 0 143 0Z" fill="#EEEAFF"/>
<path fill-rule="evenodd" clip-rule="evenodd" d="M19 23.3988V12.8988C19 12.2988 19.5 11.7988 20 11.7988C20.5 11.7988 20.7 11.8988 21 12.0988L40.3 22.6988C40.7 22.8988 40.9 23.1988 40.9 23.4988C40.9 23.7988 40.7 24.0988 40.3 24.2988L21 34.7988C20.8 34.8988 20.5 35.0988 20 35.0988C19.5 35.0988 19 34.5988 19 33.9988V23.3988Z" fill="url(#paint0_linear_349_2357)"/>
<path fill-rule="evenodd" clip-rule="evenodd" d="M31.5008 23.4988L19.8008 11.7988C19.9008 11.7988 19.9008 11.7988 20.0008 11.7988C20.5008 11.7988 20.7008 11.8988 21.0008 12.0988L35.2008 19.7988L31.5008 23.4988Z" fill="url(#paint1_linear_349_2357)"/>
<path fill-rule="evenodd" clip-rule="evenodd" d="M35.1 26.9988L31.5 23.3988L35.2 19.7988L40.3 22.5988C40.7 22.7988 40.9 23.0988 40.9 23.3988C40.9 23.6988 40.7 23.9988 40.3 24.1988L35.1 26.9988Z" fill="url(#paint2_linear_349_2357)"/>
<path fill-rule="evenodd" clip-rule="evenodd" d="M19.9004 35.0004L31.5004 23.4004L35.1004 27.0004L21.0004 34.8004C20.7004 34.9004 20.5004 35.0004 19.9004 35.0004C20.0004 35.0004 20.0004 35.0004 19.9004 35.0004Z" fill="url(#paint3_linear_349_2357)"/>
<path fill-rule="evenodd" clip-rule="evenodd" d="M80.2996 37.6988C79.7996 37.2988 79.3996 36.5988 79.1996 36.1988L80.7996 35.4988C80.8996 35.6988 81.0996 35.9988 81.2996 36.2988C81.6996 36.6988 82.2996 37.0988 82.8996 37.0988C83.4996 37.0988 84.1996 36.7988 84.5996 36.2988C84.8996 35.7988 85.0996 35.2988 85.0996 34.5988V33.9988C83.8996 35.4988 81.3996 35.2988 79.9996 33.6988C78.4996 32.0988 78.4996 29.3988 79.9996 27.7988C81.4996 26.2988 83.6996 26.0988 84.9996 27.4988V26.7988H86.6996V34.3988C86.6996 36.2988 85.9996 37.3988 85.0996 38.0988C84.4996 38.5988 83.5996 38.7988 82.7996 38.7988C81.8996 38.5988 80.9996 38.2988 80.2996 37.6988ZM122.2 38.0988L123.9 34.0988L120.9 27.1988H122.6L124.7 32.0988L126.8 27.1988H128.5L123.9 38.0988H122.2ZM114.1 34.2988C113.6 33.7988 113.4 33.0988 113.4 32.3988C113.4 31.7988 113.6 31.1988 114 30.7988C114.7 30.0988 115.7 29.7988 116.8 29.7988C117.5 29.7988 118.1 29.8988 118.6 30.1988C118.6 28.9988 117.6 28.4988 116.8 28.4988C116.1 28.4988 115.4 28.8988 115.1 29.5988L113.6 28.9988C113.9 28.2988 114.7 26.9988 116.7 26.9988C117.7 26.9988 118.7 27.2988 119.3 27.9988C119.9 28.6988 120.1 29.4988 120.1 30.5988V34.7988H118.4V34.0988C118.2 34.3988 117.8 34.5988 117.5 34.7988C117.1 34.9988 116.6 35.0988 116.1 35.0988C115.5 34.9988 114.6 34.7988 114.1 34.2988ZM60.7996 30.6988C60.7996 28.6988 62.2996 26.4988 64.9996 26.4988C67.5996 26.4988 69.1996 28.6988 69.1996 30.6988C69.1996 32.6988 67.6996 34.8988 64.9996 34.8988C62.2996 34.8988 60.7996 32.6988 60.7996 30.6988ZM69.7996 30.6988C69.7996 28.6988 71.2996 26.4988 73.9996 26.4988C76.5996 26.4988 78.1996 28.6988 78.1996 30.6988C78.1996 32.6988 76.6996 34.8988 73.9996 34.8988C71.3996 34.8988 69.7996 32.6988 69.7996 30.6988ZM49.4996 32.8988C46.9996 30.3988 47.0996 26.2988 49.5996 23.6988C50.8996 22.3988 52.4996 21.7988 54.1996 21.7988C55.7996 21.7988 57.3996 22.3988 58.5996 23.5988L57.3996 24.8988C55.5996 23.0988 52.6996 23.1988 50.9996 24.9988C49.1996 26.8988 49.1996 29.7988 50.9996 31.6988C52.7996 33.5988 55.7996 33.6988 57.5996 31.7988C58.1996 31.1988 58.3996 30.3988 58.4996 29.5988H54.1996V27.7988H60.0996C60.1996 28.1988 60.1996 28.6988 60.1996 29.1988C60.1996 30.6988 59.5996 32.1988 58.5996 33.1988C57.4996 34.2988 55.8996 34.8988 54.2996 34.8988C52.5996 34.7988 50.7996 34.1988 49.4996 32.8988ZM91.7996 33.5988C90.2996 31.9988 90.2996 29.2988 91.7996 27.5988C93.2996 25.9988 95.7996 25.9988 97.1996 27.5988C97.6996 28.0988 97.9996 28.7988 98.2996 29.4988L92.7996 31.7988C93.0996 32.4988 93.7996 33.0988 94.7996 33.0988C95.6996 33.0988 96.2996 32.7988 96.8996 31.8988L98.3996 32.8988C98.1996 33.0988 97.9996 33.2988 97.8996 33.4988C96.1996 35.1988 93.2996 35.1988 91.7996 33.5988ZM102.2 34.7988V23.6988H105.8C107.9 23.6988 109.6 25.1988 109.6 26.9988C109.6 28.7988 108.1 30.2988 106.2 30.2988H104V34.7988H102.2ZM110.6 34.7988V23.6988H112.3V34.7988H110.6ZM87.9996 34.5988V22.1988H89.7996V34.5988H87.9996ZM118.5 31.4988C118.1 31.1988 117.5 31.0988 116.9 31.0988C115.7 31.0988 115 31.6988 115 32.3988C115 33.0988 115.7 33.4988 116.4 33.4988C117.4 33.4988 118.5 32.6988 118.5 31.4988ZM67.2996 30.6988C67.2996 29.4988 66.4996 28.1988 64.9996 28.1988C63.4996 28.1988 62.6996 29.4988 62.6996 30.6988C62.6996 31.8988 63.4996 33.1988 64.9996 33.1988C66.3996 33.1988 67.2996 31.8988 67.2996 30.6988ZM76.2996 30.6988C76.2996 29.4988 75.4996 28.1988 73.9996 28.1988C72.4996 28.1988 71.6996 29.4988 71.6996 30.6988C71.6996 31.8988 72.4996 33.1988 73.9996 33.1988C75.4996 33.1988 76.2996 31.8988 76.2996 30.6988ZM85.1996 31.3988C85.1996 31.2988 85.1996 31.1988 85.2996 31.0988C85.2996 30.9988 85.2996 30.7988 85.2996 30.6988C85.2996 30.5988 85.2996 30.3988 85.2996 30.2988V30.1988C85.2996 30.0988 85.1996 29.8988 85.1996 29.7988C84.8996 28.7988 83.9996 28.0988 83.0996 28.0988C81.8996 28.0988 80.8996 29.2988 80.8996 30.5988C80.8996 31.9988 81.8996 33.0988 83.1996 33.0988C83.9996 33.1988 84.7996 32.4988 85.1996 31.3988ZM92.4996 30.4988L96.1996 28.8988C95.7996 28.1988 95.1996 27.9988 94.6996 27.9988C93.1996 28.0988 92.2996 29.6988 92.4996 30.4988ZM107.8 27.0988C107.8 26.0988 107 25.3988 105.9 25.3988H103.9V28.8988H106C107 28.8988 107.8 28.0988 107.8 27.0988Z" fill="#582EFF"/>
<path d="M48.0996 13.9C48.0996 12.1 49.3996 11 50.9996 11C52.0996 11 52.7996 11.5 53.2996 12.2L52.4996 12.7C52.1996 12.2 51.6996 11.8 51.0996 11.8C49.9996 11.8 49.1996 12.6 49.1996 13.8C49.1996 15 49.9996 15.8 51.0996 15.8C51.6996 15.8 52.1996 15.5 52.3996 15.3V14.4H50.6996V13.6H53.3996V15.7C52.8996 16.3 52.0996 16.7 51.0996 16.7C49.3996 16.8 48.0996 15.6 48.0996 13.9Z" fill="#545659"/>
<path d="M54.5996 16.7V11H58.3996V11.9H55.4996V13.3H58.2996V14.2H55.4996V15.8H58.3996V16.7H54.5996Z" fill="#545659"/>
<path d="M61.2 16.7V11.9H59.5V11H63.9V11.9H62.2V16.6H61.2V16.7Z" fill="#545659"/>
<path d="M67.3008 16.7V11H68.3008V16.6H67.3008V16.7Z" fill="#545659"/>
<path d="M71.0008 16.7V11.9H69.3008V11H73.7008V11.9H72.0008V16.6H71.0008V16.7Z" fill="#545659"/>
<path d="M76.9004 13.9C76.9004 12.2 78.1004 11 79.8004 11C81.5004 11 82.7004 12.2 82.7004 13.9C82.7004 15.6 81.4004 16.8 79.7004 16.8C78.1004 16.8 76.9004 15.5 76.9004 13.9ZM81.6004 13.9C81.6004 12.7 80.9004 11.9 79.7004 11.9C78.6004 11.9 77.8004 12.8 77.8004 13.9C77.8004 15.1 78.5004 15.9 79.7004 15.9C80.9004 15.9 81.6004 15 81.6004 13.9Z" fill="#545659"/>
<path d="M87.7008 16.7L84.8008 12.7V16.7H83.8008V11H84.8008L87.7008 14.9V11H88.7008V16.6H87.7008V16.7Z" fill="#545659"/>
</g>
<defs>
<linearGradient id="paint0_linear_349_2357" x1="25.4674" y1="10.3724" x2="31.0656" y2="33.3633" gradientUnits="userSpaceOnUse">
<stop stop-color="#006884"/>
<stop offset="1" stop-color="#8AD1D0"/>
</linearGradient>
<linearGradient id="paint1_linear_349_2357" x1="18.6415" y1="13.6426" x2="33.8975" y2="21.8901" gradientUnits="userSpaceOnUse">
<stop stop-color="#24BBB6"/>
<stop offset="1" stop-color="#DBE692"/>
</linearGradient>
<linearGradient id="paint2_linear_349_2357" x1="36.1944" y1="27.4189" x2="36.1944" y2="19.4705" gradientUnits="userSpaceOnUse">
<stop stop-color="#FCC072"/>
<stop offset="1" stop-color="#F58A5B"/>
</linearGradient>
<linearGradient id="paint3_linear_349_2357" x1="21.5951" y1="37.0696" x2="33.6468" y2="24.8043" gradientUnits="userSpaceOnUse">
<stop stop-color="#712B8F"/>
<stop offset="1" stop-color="#EA1D27"/>
</linearGradient>
<clipPath id="clip0_349_2357">
<rect width="147" height="50" fill="white"/>
</clipPath>
</defs>
</svg>
